<svg xmlns="http://www.w3.org/2000/svg" viewBox="0 0 64 64" class="icon"><title>bike</title><path class="iconFill" d="M36.8,12c2.36,1.66,5.93-.37,7.91-3.44s1.23-5.37-1.13-7S38.89,0,36.9,3,34.43,10.31,36.8,12Z"/><path class="iconFill" d="M36.14,38.41c-.6-1.59-7.87-6.14-7.87-6.14s-.75-.73-.45-1.4c.84-1.92,5.53-5.35,6.74-7.51,0,0,.07.06.1,0l0,0s1.68,6.07,2.28,7.15a2.18,2.18,0,0,0,2.65,1l7.35.15c1.8-.42,2.55-1.36,2.32-2.47l0-.19c-.23-1.11-1.19-2-4-1.38l-4.65-.87-1.73-8.87a17.29,17.29,0,0,0-.25-2.57,3.64,3.64,0,0,0-2.83-3.45c-3.23-1-5.64,1.4-6.24,2.09S16.89,25.94,17.86,31.67c.51,3,4.12,5,8.45,7.41,1.27.7,4.55,2.5,4.67,3.19L29.52,54.81c.18.83.77,1.81,1.64,1.87l.43,0a1.84,1.84,0,0,0,1.88-1c.28-.66,3.14-13.73,3.14-13.73A6.4,6.4,0,0,0,36.14,38.41Z"/><path class="iconFill" d="M14.43,36.83A13.43,13.43,0,1,0,27.87,50.26,13.45,13.45,0,0,0,14.43,36.83Zm0,24.36A10.93,10.93,0,1,1,25.37,50.26,10.94,10.94,0,0,1,14.43,61.19Z"/><path class="iconFill" d="M49.38,36.83A13.43,13.43,0,1,0,62.81,50.26,13.45,13.45,0,0,0,49.38,36.83Zm0,24.36A10.93,10.93,0,1,1,60.31,50.26,10.94,10.94,0,0,1,49.38,61.19Z"/></svg>
