<svg xmlns="http://www.w3.org/2000/svg" viewBox="0 0 64 64" class="icon"><title>bus</title><path class="iconFill" d="M51.45,6.26H12.55a3.48,3.48,0,0,0-3.7,3.17V56.11a1,1,0,0,0,1,1h5.58a1,1,0,0,0,1-1V50.55H47.57v5.55a1,1,0,0,0,1,1h5.58a1,1,0,0,0,1-1V9.43A3.48,3.48,0,0,0,51.45,6.26Zm-27.84,3H40.39a1.79,1.79,0,0,1,1.91,1.64,1.79,1.79,0,0,1-1.91,1.64H23.61a1.79,1.79,0,0,1-1.91-1.64A1.79,1.79,0,0,1,23.61,9.29Zm-7.82,5.8H48.21V35.58H15.79Zm.34,30.27a3.27,3.27,0,1,1,3.27-3.27A3.27,3.27,0,0,1,16.12,45.36Zm31.75,0a3.27,3.27,0,1,1,3.27-3.27A3.27,3.27,0,0,1,47.88,45.36Z"/></svg>
