<svg xmlns="http://www.w3.org/2000/svg" viewBox="0 0 64 64" class="icon"><title>car</title><path class="iconFill" d="M55.41,28.35a1.13,1.13,0,0,0,1.44-.49l.81-1.61a1,1,0,0,0-.53-1.33l-3.56-1.52a1.13,1.13,0,0,0-1.44.49l-.81,1.61a.86.86,0,0,0,0,.1l-.55.19-2.44-4.9c-.38-3.2-2.85-5.59-6.51-6,0,0-5.58-.48-9.84-.48s-9.68.48-9.68.48a7.08,7.08,0,0,0-6.51,6l-2.45,4.92-.61-.2a.86.86,0,0,0,0-.1l-.81-1.61a1.13,1.13,0,0,0-1.44-.49L6.86,24.93a1,1,0,0,0-.53,1.33l.81,1.61a1.13,1.13,0,0,0,1.44.49h0l3,.93L8.92,34.64H8.71a2.1,2.1,0,0,0-2.17,2v13a1.9,1.9,0,0,0,.55,1.31v3.73a1,1,0,0,0,1.08,1h6a1,1,0,0,0,1.08-1v-3H48.76v3a1,1,0,0,0,1.08,1h6a1,1,0,0,0,1.08-1V51a1.91,1.91,0,0,0,.61-1.38v-13a2.1,2.1,0,0,0-2.17-2h-.21l-2.68-5.38,2.93-.91ZM19.93,20.63c.67-1.42,1.27-2.51,4.16-2.83,0,0,4.38-.39,7.83-.39s7.83.39,7.83.39c2.88.31,3.48,1.41,4.16,2.83l3.38,7.92H16.55Zm-4.28,21.3a3.06,3.06,0,1,1,0-6.1,3.06,3.06,0,1,1,0,6.1Zm32.75,0a3.06,3.06,0,1,1,3.31-3.05A3.19,3.19,0,0,1,48.4,41.93Z"/></svg>
