<svg xmlns="http://www.w3.org/2000/svg" viewBox="0 0 64 64" class="icon"><title>carpool</title><path class="iconFill" d="M38.88,18.3h0c-2.16,0-2.93,1.2-2.93,3.25s1.1,4.23,2.93,4.23h0c1.83,0,2.93-2.18,2.93-4.23S41,18.3,38.88,18.3Z"/><path class="iconFill" d="M24,18.3h0c-2.16,0-2.93,1.2-2.93,3.25s1.1,4.23,2.93,4.23h0c1.83,0,2.93-2.18,2.93-4.23S26.17,18.3,24,18.3Z"/><path class="iconFill" d="M56.58,28.11a1,1,0,0,0,1.33-.49L58.65,26a1,1,0,0,0-.49-1.33l-3.28-1.52a1,1,0,0,0-1.33.49l-.75,1.61a.92.92,0,0,0,0,.1l-.51.19L50,20.64a6.6,6.6,0,0,0-6-6s-8.15-.48-12.07-.48S20,14.64,20,14.64a6.77,6.77,0,0,0-6,6l-2.26,4.92-.56-.2a.92.92,0,0,0,0-.1l-.75-1.61a1,1,0,0,0-1.33-.49L5.83,24.68A1,1,0,0,0,5.35,26l.75,1.61a1,1,0,0,0,1.33.49h0l2.75.93L7.72,34.39H7.53a2,2,0,0,0-2,2v13A2,2,0,0,0,6,50.7v3.73a1,1,0,0,0,1,1h5.52a1,1,0,0,0,1-1v-3h36.9v3a1,1,0,0,0,1,1H57a1,1,0,0,0,1-1V50.77a2,2,0,0,0,.56-1.38v-13a2,2,0,0,0-2-2h-.19L53.87,29l2.7-.91ZM13.94,41.69A3.05,3.05,0,1,1,17,38.63,3.05,3.05,0,0,1,13.94,41.69ZM41.4,25.37a3.21,3.21,0,0,1-5,0,3.46,3.46,0,0,0-1.73,2.91H28.29a3.45,3.45,0,0,0-1.76-2.93,3.21,3.21,0,0,1-5,0,3.46,3.46,0,0,0-1.73,2.91h-5l3.12-7.92c.62-1.42,1.17-2.51,3.83-2.83,0,0,7-.39,10.22-.39s10.22.39,10.22.39c2.66.31,3.21,1.41,3.83,2.83L49.1,28.3H43.17A3.45,3.45,0,0,0,41.4,25.37Zm8.72,16.31a3.05,3.05,0,1,1,3.05-3.05A3.05,3.05,0,0,1,50.12,41.69Z"/></svg>
