<svg xmlns="http://www.w3.org/2000/svg" viewBox="0 0 64 64" class="icon"><title>carpool</title><circle class="iconFill" cx="38.86" cy="21.98" r="3.48"/><circle class="iconFill"  cx="24.02" cy="21.37" r="2.87"/><path class="iconFill" d="M56.58,28.11a1,1,0,0,0,1.33-.49L58.65,26a1,1,0,0,0-.49-1.33l-3.28-1.52a1,1,0,0,0-1.33.49l-.75,1.61a.92.92,0,0,0,0,.1l-.51.19L50,20.64a6.6,6.6,0,0,0-6-6s-8.15-.48-12.07-.48S20,14.64,20,14.64a6.77,6.77,0,0,0-6,6l-2.26,4.92-.56-.2a.92.92,0,0,0,0-.1l-.75-1.61a1,1,0,0,0-1.33-.49L5.83,24.68A1,1,0,0,0,5.35,26l.75,1.61a1,1,0,0,0,1.33.49h0l2.75.93L7.72,34.39H7.53a2,2,0,0,0-2,2v13A2,2,0,0,0,6,50.7v3.73a1,1,0,0,0,1,1h5.52a1,1,0,0,0,1-1v-3h36.9v3a1,1,0,0,0,1,1H57a1,1,0,0,0,1-1V50.77a2,2,0,0,0,.56-1.38v-13a2,2,0,0,0-2-2h-.19L53.87,29l2.7-.91ZM13.94,41.69A3.05,3.05,0,1,1,17,38.63,3.05,3.05,0,0,1,13.94,41.69Zm28.45-17a4.43,4.43,0,0,1-7.16-.16,5.76,5.76,0,0,0-2.32,3.78H28.72v-1a4.73,4.73,0,0,0-1.8-3.7,3.65,3.65,0,0,1-5.9-.13,4.73,4.73,0,0,0-2,3.83v1H14.76l3.12-7.92c.62-1.42,1.17-2.51,3.83-2.83,0,0,7-.39,10.22-.39s10.22.39,10.22.39c2.66.31,3.21,1.41,3.83,2.83L49.1,28.3H44.49A5.76,5.76,0,0,0,42.38,24.68Zm7.74,17a3.05,3.05,0,1,1,3.05-3.05A3.05,3.05,0,0,1,50.12,41.69Z"/></svg>
