<svg xmlns="http://www.w3.org/2000/svg" viewBox="0 0 64 64" class="icon"><title>rideshare</title><circle class="iconFill" cx="11.51" cy="13.76" r="4.26"/><path class="iconFill" d="M18.48,22.55a7,7,0,0,0-2.67-5.5,5.42,5.42,0,0,1-8.75-.19,7,7,0,0,0-2.92,5.69v4.37H18.48Z"/><circle class="iconFill" cx="32.2" cy="7.5" r="4.26"/><path class="iconFill" d="M39.17,16.3a7,7,0,0,0-2.67-5.5,5.42,5.42,0,0,1-8.75-.19,7,7,0,0,0-2.92,5.69v4.37H39.17Z"/><circle class="iconFill" cx="52.89" cy="13.76" r="4.26"/><path class="iconFill" d="M57.19,17.06a5.42,5.42,0,0,1-8.75-.19,7,7,0,0,0-2.92,5.69v4.37H59.86V22.55A7,7,0,0,0,57.19,17.06Z"/><path class="iconFill" d="M47,43.43l-2.14-.91a.68.68,0,0,0-.87.29l-.49,1a.51.51,0,0,0,0,.06l-.33.11L41.7,41a4.14,4.14,0,0,0-3.92-3.59s-3.36-.29-5.92-.29-5.83.29-5.83.29A4.25,4.25,0,0,0,22.12,41L20.65,44l-.37-.12a.51.51,0,0,0,0-.06l-.49-1a.68.68,0,0,0-.87-.29l-2.14.91a.58.58,0,0,0-.32.79l.49,1a.68.68,0,0,0,.87.29h0l1.8.56L18,49.23h-.13a1.26,1.26,0,0,0-1.31,1.2v7.78a1.13,1.13,0,0,0,.33.79v2.23a.63.63,0,0,0,.65.6h3.6a.63.63,0,0,0,.65-.6V59.4H42v1.82a.63.63,0,0,0,.65.6h3.6a.63.63,0,0,0,.65-.6V59a1.14,1.14,0,0,0,.37-.83V50.43a1.26,1.26,0,0,0-1.31-1.2h-.13L44.2,46,46,45.47h0a.68.68,0,0,0,.87-.29l.49-1A.58.58,0,0,0,47,43.43ZM24.63,40.86a2.53,2.53,0,0,1,2.5-1.69s2.64-.23,4.71-.23,4.71.23,4.71.23a2.53,2.53,0,0,1,2.5,1.69l2,4.74H22.6ZM22.06,53.6a1.83,1.83,0,1,1,2-1.83A1.91,1.91,0,0,1,22.06,53.6Zm19.7,0a1.83,1.83,0,1,1,2-1.83A1.91,1.91,0,0,1,41.76,53.6Z"/><rect class="iconFill" x="30.8" y="23.73" width="2.48" height="9.3"/><rect class="iconFill" x="15.27" y="28.96" width="2.48" height="9.3" transform="translate(-20.13 25.86) rotate(-51.91)"/><rect class="iconFill" x="42.94" y="32.37" width="9.3" height="2.48" transform="translate(-10.6 36.51) rotate(-38.09)"/></svg>
