<svg xmlns="http://www.w3.org/2000/svg" viewBox="0 0 64 64" class="icon"><title>rideshare</title><rect class="iconFill" x="30.8" y="23.73" width="2.48" height="9.3"/><rect class="iconFill" x="15.27" y="28.96" width="2.48" height="9.3" transform="translate(-20.13 25.86) rotate(-51.91)"/><rect class="iconFill" x="42.94" y="32.37" width="9.3" height="2.48" transform="translate(-10.6 36.51) rotate(-38.09)"/><path class="iconFill" d="M11.39,17.37h0c2.68,0,4.3-3.19,4.3-6.2s-1.14-4.76-4.3-4.76h0c-3.16,0-4.3,1.76-4.3,4.76S8.71,17.37,11.39,17.37Z" /><path class="iconFill" d="M17.78,22.38c-.07-2.93-.93-4.73-2.69-5.6a4.83,4.83,0,0,1-3.7,1.8A4.82,4.82,0,0,1,7.72,16.8c-1.72.88-2.56,2.67-2.64,5.56,0,.14,0,4.29,0,4.44h12.7C17.78,26.66,17.78,22.51,17.78,22.38Z" /><path class="iconFill" d="M32.26,12.62h0c2.68,0,4.3-3.19,4.3-6.2s-1.14-4.76-4.3-4.76h0C29.1,1.66,28,3.42,28,6.42S29.58,12.62,32.26,12.62Z" /><path class="iconFill" d="M38.64,17.62C38.57,14.7,37.71,12.9,36,12a4.7,4.7,0,0,1-7.37,0c-1.72.88-2.56,2.67-2.64,5.56,0,.14,0,4.29,0,4.44h12.7C38.65,21.91,38.65,17.76,38.64,17.62Z" /><path class="iconFill" d="M52.65,17.37h0c2.68,0,4.3-3.19,4.3-6.2s-1.14-4.76-4.3-4.76h0c-3.16,0-4.3,1.76-4.3,4.76S50,17.37,52.65,17.37Z" /><path class="iconFill" d="M59,22.38c-.07-2.93-.93-4.73-2.69-5.6a4.7,4.7,0,0,1-7.37,0c-1.72.88-2.56,2.67-2.64,5.56,0,.14,0,4.29,0,4.44H59C59,26.66,59,22.51,59,22.38Z" /><path class="iconFill" d="M47,43.43l-2.14-.91a.68.68,0,0,0-.87.29l-.49,1a.51.51,0,0,0,0,.06l-.33.11L41.7,41a4.14,4.14,0,0,0-3.92-3.59s-3.36-.29-5.92-.29-5.83.29-5.83.29A4.25,4.25,0,0,0,22.12,41L20.65,44l-.37-.12a.51.51,0,0,0,0-.06l-.49-1a.68.68,0,0,0-.87-.29l-2.14.91a.58.58,0,0,0-.32.79l.49,1a.68.68,0,0,0,.87.29h0l1.8.56L18,49.23h-.13a1.26,1.26,0,0,0-1.31,1.2v7.78a1.13,1.13,0,0,0,.33.79v2.23a.63.63,0,0,0,.65.6h3.6a.63.63,0,0,0,.65-.6V59.4H42v1.82a.63.63,0,0,0,.65.6h3.6a.63.63,0,0,0,.65-.6V59a1.14,1.14,0,0,0,.37-.83V50.43a1.26,1.26,0,0,0-1.31-1.2h-.13L44.2,46,46,45.47h0a.68.68,0,0,0,.87-.29l.49-1A.58.58,0,0,0,47,43.43ZM24.63,40.86a2.53,2.53,0,0,1,2.5-1.69s2.64-.23,4.71-.23,4.71.23,4.71.23a2.53,2.53,0,0,1,2.5,1.69l2,4.74H22.6ZM22.06,53.6a1.83,1.83,0,1,1,2-1.83A1.91,1.91,0,0,1,22.06,53.6Zm19.7,0a1.83,1.83,0,1,1,2-1.83A1.91,1.91,0,0,1,41.76,53.6Z" /></svg>
