<svg xmlns="http://www.w3.org/2000/svg" viewBox="0 0 64 64" class="icon"><title>rollerblade</title><path class="iconFill" d="M36.76,13.5c2.27,1.31,5.39-.83,7-3.78s.76-5-1.5-6.28-4.39-1-6,1.94S34.49,12.19,36.76,13.5Z"/><path class="iconFill" d="M23.59,36.91c-.19-.21-.37-.15-.49.17-.44,1.18-1.59,4.2-2.39,6.17-.36.88-.93,2.86-1.45,3.1S13.18,49.26,12,50a4.28,4.28,0,0,0-2.05,2.25c-.34.9.37,2.57,1,2.59s7.83-2.81,10.6-3.95a5.89,5.89,0,0,0,2.12-1.76c1-1.14,3.39-4,4.62-5.8.41-.35.2-1-.14-1.39C27.63,41.35,24.57,38,23.59,36.91Z"/><polygon class="iconFill" points="37.27 26.12 37.27 26.12 37.26 26.14 37.27 26.12"/><circle class="iconFill" cx="7.14" cy="52.08" r="1.61" transform="translate(-11.36 2.88) rotate(-12.8)"/><circle class="iconFill" cx="8.59" cy="55.32" r="1.61" transform="translate(-12.04 3.28) rotate(-12.8)"/><circle class="iconFill" cx="10.23" cy="58.63" r="1.61" transform="translate(-12.73 3.72) rotate(-12.8)"/><circle class="iconFill" cx="35.3" cy="59.72" r="1.66" transform="translate(-30.52 81.63) rotate(-77.82)"/><circle class="iconFill" cx="38.97" cy="59.77" r="1.66" transform="translate(-27.67 85.25) rotate(-77.82)"/><circle class="iconFill" class="iconFill" cx="42.78" cy="59.68" r="1.66" transform="translate(-24.59 88.91) rotate(-77.82)"/><path class="iconFill" d="M50.82,26.68l-.06-.17c-.35-1-1.34-1.61-3.82-.62L43.4,27.29l-.55.22L40.06,20a10.35,10.35,0,0,0-.54-1.55c-.3-.88-1-2-2.86-3.54a7.54,7.54,0,0,0-1.55-.85c-2.76-1.08-6.18.07-9.23,1.58h0s-3.7,1.51-4.77,2.14-1.39,1.09-1.52,1.93c0,0-.44,4.56-.47,6.57s.56,3.08,1.37,3.21l.46.07c.4.06.85-.4,1-.79.34-.77,1.14-7.39,1.36-7.67a19.75,19.75,0,0,1,3.53-.88,2.82,2.82,0,0,1,0,1.18,16.39,16.39,0,0,1-1.93,7.18,7,7,0,0,0-1.07,4.29A5.27,5.27,0,0,0,24,34.1c.57,2.73,6.87,8.17,8,8.82s2.22,1.2,2.38,1.82l1.66,11.55c.22.74.82,1.58,1.63,1.56h.39a1.73,1.73,0,0,0,1.65-1.1c.21-.62-.19-12.76-.19-12.76a5.72,5.72,0,0,0-.68-3.17c-.66-1.39-5.41-5.13-5.41-5.13a.72.72,0,0,1-.17-.9c.65-1.81,3.76-8.5,4-8.66l.07-.18a53.76,53.76,0,0,0,2.74,5.49,2,2,0,0,0,2.54.5L49,29.25C50.62,28.6,51.17,27.64,50.82,26.68Z"/></svg>
