<svg xmlns="http://www.w3.org/2000/svg" viewBox="0 0 64 64" class="icon"><title>skateboard</title><path class="iconFill" d="M34.13,11.75c2.42.32,4.4-2.54,4.79-5.56s-1-4.42-3.45-4.73-4.16.67-4.55,3.69S31.71,11.44,34.13,11.75Z"/><polygon points="38.25 22.48 38.25 22.49 38.24 22.51 38.25 22.48"/><path class="iconFill" d="M56.16,50.73c-.41-2.55-3.1-4.26-6-3.8l-2.65.54c-.79-3-2.89-10-2.89-10a5.06,5.06,0,0,0-1.38-2.59c-.93-1.05-6.25-3-6.25-3a1,1,0,0,1-.26-.85c.14-1.73.85-6.11,1.21-8.13a2,2,0,0,1,.28-.36l0-.17a48.56,48.56,0,0,0,3.81,4.11,1.9,1.9,0,0,0,2.41-.18l5.16-3.87c1.27-.95,1.53-1.92,1-2.67l-.1-.13c-.55-.75-1.6-1.08-3.6.38L44.07,22l-.44.32-4.34-5.81a8.78,8.78,0,0,0-2.15-2.45,5.28,5.28,0,0,0-1.36-.9,3.78,3.78,0,0,0-2-.61,5.34,5.34,0,0,0-.73,0c-2.64-.09-5.06,2.06-7.37,4v0c-1.14,1-2.26,2-2.59,2.28s-1.27.84-1.27.84c-1.34.63-7.42,4.19-7.92,4.61-.3.25-.58.77-.43,1.11l.32.62c.32.7,2.29.61,4,0s4.82-2.3,5.59-2.54,4.77-2.19,4.77-2.19l.76-.35L29,22.63c-.43,2-.84,3.82-1.07,4.7a9.84,9.84,0,0,0,.41,5.43c.94,2.34,8,5.3,9.22,5.59s2.3.51,2.59,1l3.74,8.82c-2.55.48-5.61,1-8.65,1.53-2.77.44-5.92.89-8.77,1.26a29.94,29.94,0,0,1,3.55-3.51,5.38,5.38,0,0,0,1.49-2c.6-1.23,2.1-4.27,2.76-6.16.29-.4-.06-.92-.46-1.18-.59-.38-4.18-2.56-5.33-3.26-.22-.14-.37,0-.4.26-.11,1.13-.41,4-.66,5.94-.11.85-.15,2.71-.56,3s-2.79,4.75-3.68,5.67A4.35,4.35,0,0,0,22,51.54l-4.2.51c-2.88.46-4.9,2.93-4.49,5.48s3.1,4.26,6,3.8l1.47-.27a2.52,2.52,0,0,0,2.58,1.74A2.41,2.41,0,0,0,26,60.69a1.7,1.7,0,0,0-.11-.57c3.52-.65,7.63-1.4,10.08-1.88C38,58,42.06,57.48,45.53,57a1.67,1.67,0,0,0,0,.22,2.69,2.69,0,0,0,5.25,0,1.74,1.74,0,0,0-.25-.88l1.17-.16C54.55,55.75,56.57,53.28,56.16,50.73Z"/></svg>
