<svg xmlns="http://www.w3.org/2000/svg" viewBox="0 0 64 64" class="icon"><title>streetcar</title><path class="iconFill" d="M45.75,56.89H48a3.14,3.14,0,0,0,3.13-3.13V16.38A3.14,3.14,0,0,0,48,13.26H36.49v-.73a1,1,0,0,0-1-1H33.62L36.1.83l-1.55,0L32,11.52h0L29.45.81,27.9.83l2.48,10.69H28.51a1,1,0,0,0-1,1v.73H16a3.14,3.14,0,0,0-3.13,3.13V53.76A3.14,3.14,0,0,0,16,56.89h2.24l-6.19,6.69H17.3l6.19-6.69H41l6.19,6.69h4.73ZM25.35,17.31H38.65a1.61,1.61,0,0,1,0,3.22H25.35a1.61,1.61,0,0,1,0-3.22Zm-8.27,5.33H46.91V38.77H17.09Zm3.43,27.91a3.08,3.08,0,1,1,3.08-3.08A3.08,3.08,0,0,1,20.52,50.54Zm23,0a3.08,3.08,0,1,1,3.08-3.08A3.08,3.08,0,0,1,43.48,50.54Z"/></svg>
