<svg xmlns="http://www.w3.org/2000/svg" viewBox="0 0 64 64" class="icon"><title>taxi</title><path class="iconFill" d="M38.88,21.3h0c-2.16,0-2.93,1.2-2.93,3.25s1.1,4.23,2.93,4.23h0c1.83,0,2.93-2.18,2.93-4.23S41,21.3,38.88,21.3Z"/><path class="iconFill" d="M24,22.27h0c-1.75,0-2.38,1-2.38,2.63s.89,3.43,2.38,3.43h0c1.48,0,2.38-1.76,2.38-3.43S25.73,22.27,24,22.27Z"/><path class="iconFill" d="M56.58,31.11a1,1,0,0,0,1.33-.49L58.65,29a1,1,0,0,0-.49-1.33l-3.28-1.52a1,1,0,0,0-1.33.49l-.75,1.61a.92.92,0,0,0,0,.1l-.51.19L50,23.64a6.6,6.6,0,0,0-6-6s-1.49-.18-4.72-.31V14.2a1,1,0,0,0-1-1H25.69a1,1,0,0,0-1,1v3.13c-3.2.14-4.66.32-4.66.32a6.77,6.77,0,0,0-6,6l-2.26,4.92-.56-.2a.92.92,0,0,0,0-.1l-.75-1.61a1,1,0,0,0-1.33-.49L5.83,27.68A1,1,0,0,0,5.35,29l.75,1.61a1,1,0,0,0,1.33.49h0l2.75.93L7.72,37.39H7.53a2,2,0,0,0-2,2v13A2,2,0,0,0,6,53.7v3.73a1,1,0,0,0,1,1h5.52a1,1,0,0,0,1-1v-3h36.9v3a1,1,0,0,0,1,1H57a1,1,0,0,0,1-1V53.77a2,2,0,0,0,.56-1.38v-13a2,2,0,0,0-2-2h-.19L53.87,32l2.7-.91ZM13.94,44.69A3.05,3.05,0,1,1,17,41.63,3.05,3.05,0,0,1,13.94,44.69ZM41.4,28.37a3.21,3.21,0,0,1-5,0,3.46,3.46,0,0,0-1.73,2.91L28,31.37A5.37,5.37,0,0,0,26,28,2.6,2.6,0,0,1,22,28,5.42,5.42,0,0,0,20,31.37l-5.29-.07,3.12-7.92c.62-1.42,1.17-2.51,3.83-2.83,0,0,7-.39,10.22-.39s10.22.39,10.22.39c2.66.31,3.21,1.41,3.83,2.83L49.1,31.3H43.17A3.45,3.45,0,0,0,41.4,28.37Zm8.72,16.31a3.05,3.05,0,1,1,3.05-3.05A3.05,3.05,0,0,1,50.12,44.69Z"/></svg>
